<svg width="240" height="60" viewBox="0 0 566.9 141.7" xmlns="http://www.w3.org/2000/svg" version="1.1"><style type="text/css">.st0{fill:#FCFCFC;} .st1{fill:#D8DEE3;</style><g><g><circle transform="matrix(0.9975 -7.065825e-02 7.065825e-02 0.9975 -4.1995 3.7697)" cx="51.2" cy="61.2" r="3.2" class="st0"></circle><circle transform="matrix(0.9975 -7.065825e-02 7.065825e-02 0.9975 -5.1333 3.8691)" cx="52.1" cy="74.5" r="4.3" class="st0"></circle><circle transform="matrix(0.9975 -7.065825e-02 7.065825e-02 0.9975 -6.1938 3.982)" cx="53.2" cy="89.5" r="5.5" class="st0"></circle></g><g><circle transform="matrix(0.9975 -7.065825e-02 7.065825e-02 0.9975 -5.2894 10.1876)" cx="141.4" cy="79.9" r="3.2" class="st0"></circle><circle transform="matrix(0.9975 -7.065825e-02 7.065825e-02 0.9975 -4.3557 10.0882)" cx="140.4" cy="66.6" r="4.3" class="st0"></circle><circle transform="matrix(0.9975 -7.065825e-02 7.065825e-02 0.9975 -3.2952 9.9752)" cx="139.4" cy="51.6" r="5.5" class="st0"></circle></g><g><circle transform="matrix(0.9975 -7.065825e-02 7.065825e-02 0.9975 -7.9519 6.4762)" cx="87.6" cy="115.6" r="3.2" class="st0"></circle><circle transform="matrix(0.9975 -7.065825e-02 7.065825e-02 0.9975 -7.8525 7.4099)" cx="100.8" cy="114.7" r="4.3" class="st0"></circle><circle transform="matrix(0.9975 -7.065825e-02 7.065825e-02 0.9975 -7.7396 8.4704)" cx="115.9" cy="113.6" r="5.5" class="st0"></circle></g><g><circle transform="matrix(0.9975 -7.065825e-02 7.065825e-02 0.9975 -1.5355 7.5236)" cx="105.6" cy="25.5" r="3.2" class="st0"></circle><circle transform="matrix(0.9975 -7.065825e-02 7.065825e-02 0.9975 -1.6349 6.5899)" cx="92.3" cy="26.4" r="4.3" class="st0"></circle><circle transform="matrix(0.9975 -7.065825e-02 7.065825e-02 0.9975 -1.7478 5.5294)" cx="77.3" cy="27.5" r="5.5" class="st0"></circle></g><g><path d="M71.8,103.5c-4.3-3.2-7.1-7.8-7.8-13.1l-4.4-29.6c-0.8-5.3,0.5-10.5,3.7-14.8c3.2-4.3,7.8-7.1,13.1-7.8l29.6-4.4c10.9-1.6,21,5.9,22.6,16.8l4.4,29.6c0.8,5.3-0.5,10.5-3.7,14.8c-3.2,4.3-7.8,7.1-13.1,7.8l-29.6,4.4c-2.3,0.3-4.7,0.3-6.9-0.2C76.9,106.5,74.2,105.3,71.8,103.5z M107.6,45.5l-29.6,4.4c-2.2,0.3-4.1,1.5-5.4,3.2c-1.3,1.8-1.8,3.9-1.5,6.1l4.4,29.6c0.3,2.2,1.5,4.1,3.2,5.4c1.8,1.3,3.9,1.8,6.1,1.5l29.6-4.4c2.2-0.3,4.1-1.5,5.4-3.2c1.3-1.8,1.8-3.9,1.5-6.1L117,52.4c-0.5-3.5-3.2-6.2-6.5-6.8C109.6,45.4,108.6,45.3,107.6,45.5z" class="st0"></path></g></g><g><path d="M181.2,81.4v22.4h-15.5V36.8h23.6c4.7,0,8.8,0.6,12.1,1.7c3.4,1.1,6.2,2.7,8.4,4.6c2.2,2,3.8,4.3,4.8,6.9c1,2.7,1.6,5.5,1.6,8.6c0,3.3-0.5,6.4-1.6,9.2c-1.1,2.8-2.7,5.2-4.9,7.2c-2.2,2-5,3.5-8.4,4.7c-3.4,1.1-7.4,1.7-12,1.7H181.2zM181.2,69.7h8.1c4,0,7-1,8.7-2.9c1.8-1.9,2.7-4.6,2.7-8.1c0-1.5-0.2-2.9-0.7-4.2c-0.5-1.3-1.2-2.3-2.1-3.2c-0.9-0.9-2.1-1.6-3.5-2.1c-1.4-0.5-3.1-0.7-5.1-0.7h-8.1V69.7z" class="st0"></path><path d="M251.2,103.7c-1.3,0-2.4-0.2-3.1-0.6c-0.7-0.4-1.3-1.1-1.7-2.3l-1-2.6c-1.2,1-2.3,1.9-3.4,2.7c-1.1,0.8-2.2,1.4-3.4,2c-1.2,0.5-2.4,0.9-3.8,1.2c-1.3,0.3-2.8,0.4-4.4,0.4c-2.2,0-4.1-0.3-5.9-0.9c-1.8-0.6-3.3-1.4-4.5-2.5s-2.2-2.5-2.9-4.1c-0.7-1.6-1-3.5-1-5.7c0-1.7,0.4-3.4,1.3-5.2c0.9-1.8,2.3-3.4,4.5-4.9c2.1-1.5,5-2.7,8.5-3.7c3.6-1,8.1-1.5,13.5-1.5v-2c0-2.8-0.6-4.8-1.7-6.1c-1.1-1.3-2.8-1.9-4.9-1.9c-1.7,0-3.1,0.2-4.1,0.6c-1.1,0.4-2,0.8-2.9,1.2c-0.8,0.5-1.7,0.9-2.5,1.2c-0.8,0.4-1.7,0.6-2.8,0.6c-1,0-1.8-0.2-2.5-0.7c-0.7-0.5-1.2-1.1-1.6-1.8l-2.6-4.5c2.9-2.5,6.1-4.4,9.6-5.7c3.5-1.2,7.3-1.9,11.3-1.9c2.9,0,5.5,0.5,7.8,1.4c2.3,0.9,4.3,2.2,5.9,3.9c1.6,1.7,2.8,3.7,3.7,5.9c0.9,2.3,1.3,4.8,1.3,7.5v29.8H251.2z M234.8,95.1c1.8,0,3.4-0.3,4.8-1c1.4-0.6,2.8-1.7,4.2-3.1v-6.5c-2.8,0-5.2,0.2-7,0.6c-1.8,0.4-3.3,0.8-4.4,1.4c-1.1,0.6-1.8,1.2-2.2,1.9c-0.4,0.7-0.6,1.5-0.6,2.3c0,1.6,0.4,2.8,1.3,3.5C231.8,94.7,233.1,95.1,234.8,95.1z" class="st0"></path><path d="M262.5,103.7V56.1h8.5c0.7,0,1.3,0.1,1.8,0.2c0.5,0.1,0.9,0.3,1.2,0.6c0.3,0.3,0.6,0.6,0.7,1c0.2,0.4,0.3,0.9,0.4,1.6l0.8,4.5c1.7-2.7,3.7-4.8,5.9-6.4c2.2-1.6,4.5-2.3,7.1-2.3c2.2,0,3.9,0.5,5.2,1.6l-1.8,10.5c-0.1,0.6-0.4,1.1-0.7,1.4c-0.4,0.3-0.9,0.4-1.5,0.4c-0.5,0-1.1-0.1-1.8-0.2c-0.7-0.1-1.6-0.2-2.7-0.2c-3.7,0-6.7,2-8.8,6v29.2H262.5z" class="st0"></path><path d="M317.2,104.5c-2.3,0-4.3-0.3-6-1c-1.7-0.7-3.2-1.6-4.4-2.8c-1.2-1.2-2.1-2.7-2.7-4.4c-0.6-1.7-0.9-3.6-0.9-5.7V65.9h-4c-0.7,0-1.4-0.2-1.9-0.7c-0.5-0.5-0.8-1.2-0.8-2.1v-5.6l7.6-1.5l2.8-11.6c0.4-1.5,1.4-2.2,3.1-2.2h7.4v13.9H329v9.7h-11.6v23.7c0,1.1,0.3,2,0.8,2.7c0.5,0.7,1.3,1.1,2.3,1.1c0.5,0,1-0.1,1.3-0.2c0.4-0.1,0.7-0.2,0.9-0.4c0.3-0.1,0.5-0.3,0.7-0.4
c0.2-0.1,0.5-0.2,0.8-0.2c0.4,0,0.8,0.1,1,0.3s0.5,0.5,0.8,0.9l4.3,6.8c-1.8,1.4-3.9,2.4-6.2,3.1C322,104.1,319.6,104.5,317.2,104.5z" class="st0"></path><path d="M366.3,66.5c-0.4,0.6-0.8,1-1.2,1.2c-0.4,0.2-0.9,0.4-1.6,0.4c-0.7,0-1.3-0.1-2-0.4c-0.7-0.3-1.4-0.6-2.2-0.9c-0.8-0.3-1.7-0.6-2.6-0.9c-1-0.3-2.1-0.4-3.4-0.4c-1.8,0-3.2,0.3-4.2,1c-1,0.7-1.4,1.6-1.4,2.9c0,0.9,0.3,1.6,0.9,2.2c0.6,0.6,1.5,1.1,2.5,1.5c1,0.4,2.2,0.9,3.5,1.3c1.3,0.4,2.7,0.8,4,1.3c1.4,0.5,2.7,1.1,4,1.7c1.3,0.7,2.5,1.5,3.5,2.4c1,1,1.9,2.1,2.5,3.5c0.6,1.4,0.9,3,0.9,5c0,2.4-0.4,4.5-1.3,6.5c-0.9,2-2.1,3.7-3.8,5.1c-1.7,1.4-3.8,2.6-6.3,3.4c-2.5,0.8-5.4,1.2-8.6,1.2c-1.6,0-3.2-0.2-4.9-0.5c-1.6-0.3-3.2-0.7-4.7-1.2c-1.5-0.5-2.9-1.1-4.2-1.9c-1.3-0.7-2.4-1.5-3.3-2.3l3.3-5.2c0.4-0.6,0.9-1.1,1.4-1.4c0.6-0.4,1.3-0.5,2.2-0.5c0.8,0,1.6,0.2,2.2,0.6c0.7,0.4,1.4,0.8,2.1,1.2c0.8,0.4,1.7,0.8,2.7,1.2c1,0.4,2.3,0.6,3.9,0.6c1.1,0,2-0.1,2.8-0.3c0.8-0.2,1.4-0.5,1.8-0.9c0.5-0.4,0.8-0.8,1-1.3c0.2-0.5,0.3-1,0.3-1.5c0-0.9-0.3-1.7-1-2.3c-0.6-0.6-1.5-1.1-2.5-1.6c-1-0.4-2.2-0.9-3.6-1.2c-1.3-0.4-2.7-0.8-4.1-1.3c-1.4-0.5-2.7-1.1-4.1-1.8s-2.5-1.6-3.6-2.6c-1-1.1-1.9-2.3-2.5-3.9c-0.6-1.5-1-3.4-1-5.6c0-2,0.4-3.9,1.2-5.8c0.8-1.8,2-3.4,3.5-4.8c1.6-1.4,3.5-2.5,5.9-3.3c2.4-0.8,5.1-1.2,8.3-1.2c1.7,0,3.4,0.2,5,0.5c1.6,0.3,3.1,0.7,4.5,1.3c1.4,0.6,2.7,1.2,3.9,2c1.2,0.8,2.2,1.6,3.1,2.5L366.3,66.5z" class="st0"></path><path d="M374.1,103.7V36.8h24.6c4.6,0,8.6,0.4,11.8,1.3c3.2,0.9,5.9,2.1,7.9,3.6s3.5,3.5,4.5,5.7c0.9,2.2,1.4,4.7,1.4,7.5c0,1.5-0.2,2.9-0.6,4.3c-0.4,1.4-1.1,2.7-2,3.9c-0.9,1.2-2.1,2.3-3.5,3.3c-1.4,1-3.2,1.9-5.2,2.6c4.4,1.1,7.7,2.8,9.8,5.2c2.1,2.4,3.2,5.5,3.2,9.3c0,2.8-0.6,5.5-1.7,7.9c-1.1,2.4-2.7,4.6-4.8,6.4c-2.1,1.8-4.8,3.2-7.9,4.3c-3.1,1-6.7,1.5-10.7,1.5H374.1z M389.6,65h8.1c1.7,0,3.3-0.1,4.6-0.4c1.4-0.2,2.5-0.7,3.5-1.3c1-0.6,1.7-1.5,2.2-2.5c0.5-1.1,0.8-2.4,0.8-4c0-1.6-0.2-2.9-0.6-4c-0.4-1.1-1-1.9-1.8-2.5c-0.8-0.6-1.9-1.1-3.1-1.4c-1.3-0.3-2.8-0.4-4.5-0.4h-9.1V65z M389.6,75.3V92h10.9c2.1,0,3.7-0.3,5-0.8c1.3-0.5,2.3-1.2,3.1-2c0.7-0.8,1.2-1.8,1.5-2.8c0.3-1,0.4-2.1,0.4-3.2c0-1.2-0.2-2.3-0.5-3.3c-0.3-1-0.9-1.8-1.7-2.5c-0.8-0.7-1.8-1.2-3.1-1.6c-1.3-0.4-2.9-0.6-4.9-0.6H389.6z" class="st1"></path><path d="M452.2,55.4c3.6,0,6.9,0.6,9.9,1.7c3,1.1,5.5,2.8,7.6,4.9c2.1,2.1,3.8,4.7,5,7.7c1.2,3,1.8,6.4,1.8,10.2c0,3.8-0.6,7.2-1.8,10.3c-1.2,3-2.8,5.6-5,7.8c-2.1,2.1-4.7,3.8-7.6,4.9c-3,1.1-6.3,1.7-9.9,1.7c-3.6,0-7-0.6-9.9-1.7c-3-1.1-5.6-2.8-7.7-4.9c-2.2-2.1-3.8-4.7-5-7.8c-1.2-3-1.8-6.5-1.8-10.3c0-3.8,0.6-7.2,1.8-10.2c1.2-3,2.8-5.6,5-7.7c2.2-2.1,4.7-3.7,7.7-4.9C445.3,55.9,448.6,55.4,452.2,55.4z M452.2,93.9c3.3,0,5.7-1.2,7.2-3.5c1.5-2.3,2.3-5.8,2.3-10.5c0-4.7-0.8-8.2-2.3-10.5s-4-3.4-7.2-3.4c-3.4,0-5.8,1.1-7.4,3.4s-2.3,5.8-2.3,10.5c0,4.7,0.8,8.2,2.3,10.5C446.4,92.7,448.9,93.9,452.2,93.9z" class="st1"></path><path d="M488.3,79.1l-15.3-23h13.7c1,0,1.8,0.1,2.2,0.4c0.5,0.3,0.9,0.7,1.3,1.3l8.5,14.1c0.2-0.6,0.4-1.1,0.7-1.6c0.3-0.5,0.6-1.1,0.9-1.7l6.1-10.6c0.4-0.7,0.8-1.2,1.3-1.5c0.5-0.3,1.1-0.4,1.8-0.4h13l-15.3,22.4l16,25.3h-13.7c-1,0-1.8-0.2-2.4-0.7c-0.6-0.5-1.1-1.1-1.5-1.7L497,86.6c-0.2,0.5-0.3,1-0.6,1.5c-0.2,0.5-0.4,0.9-0.7,1.3l-7,11.8c-0.4,0.6-0.9,1.2-1.5,1.7c-0.6,0.5-1.4,0.8-2.3,0.8h-12.7L488.3,79.1z" class="st1"></path></g></svg>