<svg xmlns="http://www.w3.org/2000/svg" fill="none" viewBox="0 0 103 47" class="h-[35px] w-[79px] lg:flex lg:h-[45px] lg:w-[100.4px]"><path fill="#AFCA1A" d="M37.683 11.876c1.996-2.94 4.337-6.422 6.831-10.367C27.63-.735 17.19 2.824 11.05 6.769a21.202 21.202 0 00-6.754 6.19c-.69.967-.998 1.547-.998 1.547A21.13 21.13 0 00.573 27.233c1.152 11.566 11.437 20 22.911 18.839 11.475-1.16 19.84-11.528 18.69-23.094-.423-4.217-2.073-8.008-4.49-11.102z"></path><path fill="#000" d="M72.99 6.576h11.973c9.863 0 16.003 5.957 16.003 15.744 0 9.787-6.14 15.667-16.003 15.667H72.99V6.577zM93.406 22.32c0-6.15-3.109-9.748-8.481-9.748H80.28v19.419h4.644c5.372 0 8.48-3.559 8.48-9.67z"></path><path fill="#fff" d="M18.265 24.564l-8.75-12.61 6.6 1.856c.5.155.692.27.884.387.191.116.345.27.498.503l4.529 7.272c.077-.232.153-.464.268-.735.116-.232.23-.464.384-.735l3.646-5.725c.153-.27.345-.464.537-.58.192-.116.422-.194.691-.194h4.797l-7.176 10.329 7.406 11.45H27.59c-.383 0-.69-.116-.92-.31a2.528 2.528 0 01-.576-.696l-4.605-7.582a3.869 3.869 0 01-.538 1.277l-4.03 6.344a3.072 3.072 0 01-.575.657c-.23.194-.499.31-.844.31h-4.644l7.407-11.218z"></path><path fill="#000" d="M58.176 5.957c1.574 0 2.955.232 4.183.658 1.228.464 2.265 1.044 3.109 1.818.844.774 1.497 1.663 1.919 2.63a8.083 8.083 0 01.652 3.172c0 1.006-.115 1.896-.307 2.67a5.679 5.679 0 01-.92 2.011c-.385.58-.884 1.045-1.498 1.431a10 10 0 01-2.033 1.006c3.53 1.238 5.257 3.636 5.257 7.234 0 1.702-.307 3.172-.921 4.448-.614 1.277-1.42 2.322-2.456 3.134-1.036.85-2.226 1.47-3.57 1.895-1.342.426-2.762.62-4.22.62-1.497 0-2.84-.155-4.03-.504-1.19-.348-2.226-.85-3.147-1.547-.92-.696-1.727-1.586-2.418-2.67-.69-1.082-1.304-2.359-1.803-3.867l2.993-1.238c.269-.116.537-.194.768-.232.268-.04.498-.078.767-.078.46 0 .883.078 1.267.271.383.193.652.464.844.812.652 1.2 1.343 2.09 2.072 2.63.73.542 1.612.813 2.571.813.768 0 1.42-.116 1.958-.387.575-.27 1.036-.58 1.381-1.005.384-.387.652-.851.844-1.354a4.382 4.382 0 00.269-1.548c0-.696-.038-1.315-.154-1.857-.076-.541-.345-1.005-.805-1.43-.422-.388-1.075-.697-1.958-.93-.882-.193-2.11-.309-3.684-.309v-4.642c1.305 0 2.38-.116 3.185-.309.806-.194 1.459-.503 1.881-.851.46-.348.73-.812.883-1.315.153-.503.23-1.083.23-1.702 0-1.277-.307-2.244-.921-2.902-.614-.696-1.535-1.005-2.763-1.005-.5 0-.96.077-1.382.232a5.368 5.368 0 00-1.151.58c-.346.232-.614.542-.844.89-.23.348-.422.696-.576 1.083-.23.657-.537 1.122-.883 1.431-.345.31-.844.426-1.458.426-.154 0-.307 0-.46-.04-.154 0-.346-.038-.5-.076l-3.568-.62c.23-1.585.69-2.978 1.343-4.177.652-1.2 1.496-2.166 2.456-2.979.998-.773 2.11-1.392 3.377-1.78a17.07 17.07 0 014.221-.54z"></path></svg>
