<?xml version="1.0" encoding="UTF-8" standalone="no"?>
<svg
   xmlns:dc="http://purl.org/dc/elements/1.1/"
   xmlns:cc="http://creativecommons.org/ns#"
   xmlns:rdf="http://www.w3.org/1999/02/22-rdf-syntax-ns#"
   xmlns:svg="http://www.w3.org/2000/svg"
   xmlns="http://www.w3.org/2000/svg"
   version="1.1"
   viewBox="-213.28818040700816 -213.28818040700816 426.5763608140163 426.5763608140163"
   width="100%"
   id="outputsvg"
   name="outputsvg"
   class="form-control border rounded">
  <animateTransform attributeType="xml" attributeName="transform" type="rotate" from="0 0 0" to="360 0 0" dur="360s" additive="sum" repeatCount="indefinite" />
  <metadata
     id="metadata4339">
    <rdf:RDF>
      <cc:Work
         rdf:about="">
        <dc:format>image/svg+xml</dc:format>
        <dc:type
           rdf:resource="http://purl.org/dc/dcmitype/StillImage" />
        <dc:title></dc:title>
      </cc:Work>
    </rdf:RDF>
  </metadata>
  <defs
     id="defs4337" />
  <path
     id="path4046"
     d="m 13.950219,-199.51597 c 4.643427,0.32441 9.274104,0.81082 13.883597,1.45835 l -4.63871,33.01138 c -1.910435,-0.23497 -3.824803,-0.43682 -5.742237,-0.60547 3.845636,0.37125 7.677188,0.87612 11.487724,1.51368 4.775578,0.84226 9.512106,1.89252 14.1961,3.14781 4.683828,1.25485 9.310671,2.71349 13.867314,4.37179 4.158939,1.53205 8.255127,3.22937 12.278765,5.08793 -0.496838,-0.24553 -0.994893,-0.4886 -1.494147,-0.72917 l 13.55806,-30.45275 c 4.25294,1.89328 8.438463,3.93447 12.548951,6.11984 4.109972,2.18502 8.142424,4.51284 12.089964,6.97923 3.94717,2.46764 7.80697,5.07233 11.57238,7.80932 l -19.593289,26.96641 c -0.454221,-0.30934 -0.909958,-0.61643 -1.367212,-0.92124 3.617281,2.55325 7.131401,5.24964 10.533961,8.08275 L 85.70546,-102.142 c -2.971745,-2.49317 -6.050874,-4.85546 -9.228604,-7.08015 -1.080343,-0.71027 -2.17097,-1.4048 -3.271514,-2.08335 l -18.255388,27.754159 c -0.872758,-0.548539 -1.75395,-1.083544 -2.643241,-1.604832 4.195489,2.552641 8.197243,5.410884 11.972762,8.551514 L 42.853491,-51.07057 c -1.494381,-1.237745 -3.042096,-2.409672 -4.638711,-3.512399 1.596615,1.102727 3.14433,2.274654 4.638711,3.512399 l -21.425985,25.534107 c -2.978878,-2.49929 -6.372076,-4.458109 -10.026127,-5.787821 l 11.39984,-31.321911 c 4.419641,1.635415 8.653415,3.734852 12.630335,6.263076 -0.69029,-0.464438 -1.389196,-0.915909 -2.096386,-1.35418 L 49.94014,-86.497336 c -1.658048,-1.004792 -3.344981,-1.961151 -5.05863,-2.86786 -3.467766,-1.7413 -7.03395,-3.279297 -10.680451,-4.60616 l 11.403107,-31.321914 c -3.645284,-1.32729 -7.346752,-2.49487 -11.093854,-3.49938 -3.747435,-1.00359 -7.536871,-1.84315 -11.357523,-2.51629 -2.551524,-0.41189 -5.114481,-0.74949 -7.685622,-1.01239 l -3.857453,32.995107 c -0.965593,-0.09433 -1.9325016,-0.174718 -2.9004274,-0.240885 2.8996274,0.235252 5.7875874,0.596939 8.6556814,1.083993 L 11.577164,-65.65404 C 7.7554277,-66.327763 3.8821746,-66.666499 0.00152152,-66.666416 v -33.333644 c -3.88026982,-8.5e-4 -7.75730622,0.224133 -11.61142552,0.673837 -1.919768,0.265569 -3.831403,0.586889 -5.732487,0.963543 l 5.765037,32.70864 c -0.33692,0.069 -0.673306,0.140668 -1.009126,0.214852 4.1476223,-0.807074 8.3625952,-1.217228 12.58800152,-1.227228 v 33.333646 c -3.88908652,-8.33e-4 -7.74833942,0.678907 -11.40309052,2.008486 -3.654051,1.329712 -7.047266,3.288531 -10.026144,5.787821 -2.978961,2.500107 -5.497435,5.502218 -7.44147,8.870516 L -57.736654,-33.33277 -86.604108,-49.999593 c 2.459223,-4.189556 5.220465,-8.194327 8.261794,-11.982529 -0.634973,0.746007 -1.258962,1.501297 -1.871751,2.265638 l -26.647385,-19.84067 c -0.80157,1.014976 -1.58835,2.041569 -2.36005,3.079446 -2.22509,3.177946 -4.31043,6.451494 -6.25006,9.811292 l -28.86746,-16.666823 c 2.42449,-4.20029 5.03117,-8.292761 7.81258,-12.265732 2.35809,-3.318881 4.83698,-6.550249 7.4317,-9.687589 -0.75694,0.88407 -1.5046,1.77606 -2.24286,2.67581 l -26.26652,-20.5243 c 2.86621,-3.66783 5.8596,-7.2345 8.9747,-10.69345 l 24.77236,22.3049 c -1.27259,1.46359 -2.51954,2.94929 -3.74027,4.45642 l 25.45598,21.360869 c -0.64781,0.823624 -1.28588,1.654848 -1.91409,2.493523 2.24291,-2.857777 4.601661,-5.622703 7.070384,-8.287845 l 24.248261,22.874565 c -0.708023,0.781058 -1.40363,1.573265 -2.086603,2.376323 3.254364,-3.706969 6.778564,-7.168051 10.543716,-10.354914 l 21.425984,25.534023 c -5.155865,4.857329 -4.240473,3.617034 0,0 3.626085,-3.008429 7.560871,-5.62397 11.738394,-7.802807 -0.745957,0.364854 -1.485014,0.743607 -2.216821,1.136077 L -49.998948,-86.60482 c 5.041447,-2.910661 10.327414,-5.375567 15.797682,-7.366602 4.552509,-1.620216 9.216453,-2.908328 13.955197,-3.854203 -0.941025,0.160168 -1.879717,0.333803 -2.815776,0.520838 l -7.659572,-32.327773 c -1.267045,0.26156 -2.530207,0.54152 -3.789102,0.83984 l -8.606848,-32.1227 c -0.942792,0.22617 -1.883584,0.46056 -2.822293,0.70314 l -9.189536,-32.04132 c 4.474325,-1.28359 8.992084,-2.41059 13.545044,-3.37893 l 6.930398,32.60448 c -1.890668,0.43692 -3.773569,0.90682 -5.647836,1.40951 3.756452,-0.97184 7.545687,-1.8122 11.36079,-2.51956 3.810552,-0.63755 7.642105,-1.14243 11.487741,-1.51368 -1.917435,0.16865 -3.831803,0.3705 -5.742254,0.60547 l -4.63871,-33.01138 c 4.609493,-0.64752 9.24017,-1.13394 13.883597,-1.45834 l 2.324238,33.25226 c -0.965509,0.0935 -1.930184,0.19565 -2.89391,0.30599 l 2.900427,33.12858 c -0.305053,0.0392 -0.609956,0.0793 -0.914725,0.1205 4.1665056,-0.40501 8.3497782,-0.61334 12.53591752,-0.62501 4.59932648,0.025 9.19426968,0.28792 13.76641248,0.78778 -0.715373,-0.10017 -1.431547,-0.19471 -2.148453,-0.28321 l 2.90041,-33.12858 c -0.963726,-0.11033 -1.928401,-0.21248 -2.89391,-0.30598 -3.8689367,-0.26982 -7.7461231,-0.40439 -11.62445948,-0.40365 V -200.001 c 4.65379368,-6.5e-4 9.30618738,0.16112 13.94869748,0.48503 z m 31.989234,39.30376 9.189536,-32.04132 c 4.473792,1.28284 8.90145,2.72145 13.274875,4.31319 l -11.399857,31.32191 c -3.645234,-1.32633 -7.335669,-2.52497 -11.064554,-3.59378 z m 82.617977,7.00201 c 3.56577,2.99143 7.02601,6.10643 10.37443,9.33929 l -23.1545,23.97809 c -2.79053,-2.69424 -5.67425,-5.29026 -8.64592,-7.78329 z m -32.829093,60.505139 c -0.477538,-0.530121 -0.959342,-1.056409 -1.44533,-1.578798 L 117.85094,-117.8518 c 2.86798,2.90761 5.62811,5.91966 8.27482,9.03004 -0.74566,-0.90858 -1.50092,-1.80925 -2.26564,-2.70184 l 24.7691,-22.3049 c 3.11509,3.45895 6.10849,7.02562 8.9747,10.69345 l -26.26653,20.5243 c -1.22073,-1.50713 -2.46768,-2.99283 -3.74027,-4.45643 l -25.45596,21.360869 c -0.70257,-0.785325 -1.41444,-1.562298 -2.13543,-2.330739 2.4294,2.708959 4.74689,5.516235 6.94666,8.414779 3.08858,4.149706 5.93304,8.475646 8.51897,12.955855 l -28.867459,16.666823 c -1.939701,-3.360181 -4.073321,-6.604629 -6.390026,-9.716891 -2.317455,-3.112413 -4.814112,-6.087307 -7.477287,-8.909584 -2.661909,-2.821293 -5.485718,-5.485335 -8.457113,-7.978591 L 85.70546,-102.142 c 3.501232,2.970962 6.846647,6.120808 10.022877,9.436939 z m 13.492963,16.227353 27.30494,-19.121263 c 2.78141,3.972971 5.38808,8.065442 7.81257,12.265732 l -28.86745,16.666823 c -1.93964,-3.359798 -4.02498,-6.633346 -6.25006,-9.811292 z m -16.386873,39.583705 c -0.324337,-0.909792 -0.661823,-1.814851 -1.012377,-2.714859 l 30.609,-13.203257 c 2.04874,4.749844 3.81932,9.61489 5.30279,14.570453 l -31.933886,9.56064 c -0.320803,-0.995893 -0.657222,-1.986685 -1.009126,-2.972028 1.580648,4.665011 2.814493,9.440405 3.691435,14.287234 l -32.829075,5.787821 c -0.674023,-3.821769 -1.680466,-7.577388 -3.007845,-11.224072 -1.326712,-3.646401 -2.969261,-7.170017 -4.908896,-10.530699 l 28.867454,-16.666823 c 2.391473,4.211873 4.473809,8.591947 6.230526,13.10559 z m 38.473773,13.740362 c -0.67314,-3.820652 -1.51271,-7.610088 -2.5163,-11.357523 l 32.19757,-8.626381 c 1.25529,4.683994 2.30555,9.420522 3.14781,14.1961 0.75162,4.360091 1.32935,8.748365 1.73178,13.154423 -0.0353,-0.544888 -0.0733,-1.08961 -0.114,-1.634132 l 33.15136,-3.486366 c 0.48639,4.629227 0.81098,9.274037 0.97331,13.9259144 0.1625,4.6524937 0.1625,9.3092207 0,13.9617144 L 166.56562,5.8147312 c 0.13533,-3.8758031 0.13533,-7.7551562 0,-11.6309592 -0.12684,-2.9063273 -0.32989,-5.808821 -0.60872,-8.704515 l -33.12856,2.900427 c -0.21886,-2.016435 -0.48369,-4.027604 -0.7943,-6.031956 0.48121,3.285197 0.83953,6.587228 1.07423,9.8991758 0.30075,5.1638485 0.30075,10.3408471 0,15.5046956 L 99.833226,5.8147312 c 0.03933,-1.0488432 0.06167,-2.098253 0.06833,-3.1478129 C 99.791221,7.5943312 99.3169,12.506861 98.482259,17.364323 L 65.653188,11.576519 C 66.327994,7.7548827 66.667831,3.8816297 66.668814,8.7659843e-4 H 99.882026 C 99.922193,-1.9382249 99.90586,-3.8780765 99.833192,-5.816228 99.60729,-9.6890311 99.156219,-13.545417 98.482263,-17.36582 Z m -1e-4,46.305785 c -0.82134,4.515376 -1.87528,8.985351 -3.15759,13.392042 0.21918,-0.676456 0.43295,-1.354646 0.64129,-2.034519 l 32.19757,8.626381 c -1.25485,4.683828 -2.7135,9.310671 -4.37179,13.867314 L 125.29241,45.603521 c 0.32754,-0.995609 0.64331,-1.995035 0.94728,-2.998078 -1.13001,3.452183 -2.40061,6.856748 -3.80864,10.205179 -2.0491,4.750295 -4.37292,9.377289 -6.95969,13.857547 -2.31298,3.955104 -4.82827,7.78834 -7.53588,11.484491 0.43303,-0.555405 0.86165,-1.114243 1.28582,-1.676449 l 27.2431,19.075696 c 0.57651,-0.779524 1.1462,-1.564065 1.709,-2.353539 l 27.63698,18.639492 c -2.60319,3.85959 -5.34035,7.62712 -8.20646,11.29569 l -26.26653,-20.52428 c 1.16094,-1.54161 2.29502,-3.103276 3.40173,-4.684291 -2.24705,3.149661 -4.60311,6.220141 -7.06387,9.205821 -2.53784,2.97286 -5.17948,5.85552 -7.92,8.64265 1.39331,-1.39275 2.76181,-2.81008 4.10487,-4.25134 l 24.7691,22.30489 c -3.1146,3.4593 -6.34903,6.80881 -9.69736,10.04243 -3.34842,3.23286 -6.80866,6.34784 -10.37443,9.33927 -3.56532,2.99283 -7.23404,5.86027 -10.99945,8.59708 -3.76546,2.73589 -7.62526,5.3395 -11.57238,7.80607 -3.94754,2.46639 -7.979992,4.79421 -12.089964,6.97923 -4.110488,2.18538 -8.296011,4.22656 -12.548951,6.11985 -4.252123,1.8927 -8.56903,3.6364 -12.942821,5.22791 L 57.004007,156.61693 c 3.644501,-1.327 7.241551,-2.78079 10.784618,-4.35876 0.876108,-0.41772 1.748533,-0.84309 2.617208,-1.27606 L 56.349717,120.84186 c 3.5162,-1.6394 6.959182,-3.4315 10.319097,-5.37115 l 16.614739,28.77957 c 1.6954,-0.93962 3.374282,-1.90873 5.035864,-2.90693 3.289848,-2.05615 6.506895,-4.22655 9.645274,-6.50722 3.137979,-2.27979 6.195429,-4.66841 9.166749,-7.16152 2.97167,-2.49302 5.85539,-5.08903 8.64592,-7.78327 0.39595,-0.40599 0.78984,-0.81398 1.18164,-1.22398 -3.15441,3.13228 -6.43289,6.13709 -9.82756,9.00725 L 85.70546,102.14052 c 2.972144,-2.493358 5.834038,-5.115232 8.577547,-7.858158 0.887325,-0.941026 1.7609,-1.894918 2.620474,-2.86136 L 72.736588,68.624571 c 2.663175,-2.822277 5.159832,-5.797171 7.477287,-8.909584 2.316605,-3.111212 4.450208,-6.354576 6.390026,-9.713641 1.939552,-3.360498 3.681885,-6.831014 5.218149,-10.393981 1.536831,-3.562367 2.865044,-7.211151 3.977904,-10.927836 1.112827,-3.716518 2.008453,-7.494637 2.682309,-11.315206 z m 1.5202,-11.533308 33.20668,2.906927 c -0.42264,4.830045 -1.05584,9.63934 -1.8978,14.414185 L 131.3081,23.152144 c 0.67428,-3.820486 1.1815,-7.668589 1.5202,-11.533308 z m 32.92673,5.800821 33.15136,3.486366 c -0.48679,4.62846 -1.13498,9.23852 -1.94339,13.821746 -0.80759,4.584277 -1.77498,9.138953 -2.90041,13.655729 l -32.34405,-8.063226 c 0.93841,-3.764135 1.74512,-7.559888 2.41864,-11.380324 0.67317,-3.820102 1.21279,-7.662538 1.61785,-11.520291 z M 73.267193,111.39841 54.949954,83.549844 c 3.241981,-2.132586 6.357093,-4.452075 9.329521,-6.946681 L 85.70546,102.14052 c -3.962988,3.32463 -8.11611,6.41581 -12.438267,9.25789 z M -173.20649,-100.00006 c 2.32679,-4.03129 4.79358,-7.98013 7.3959,-11.8393 l 27.637,18.639495 c -2.16934,3.216113 -4.22574,6.506994 -6.16543,9.866626 z m 87.500823,-2.14194 c 3.962988,-3.32463 8.11611,-6.41583 12.438267,-9.2579 l 18.317239,27.848559 c -3.241981,2.132586 -6.357093,4.452075 -9.329521,6.946682 z m 28.701453,-54.47643 c -3.644501,1.327 -7.241551,2.7808 -10.784618,4.35876 l -13.55806,-30.45275 c 4.252123,-1.8927 8.56903,-3.6364 12.942821,-5.22792 z m 11.399841,31.32516 c -3.644868,1.32632 -7.230118,2.81103 -10.745535,4.44991 -3.515099,1.63948 -6.956998,3.43158 -10.315863,5.37115 l -16.614739,-28.77957 c -1.696483,0.93959 -3.376432,1.9087 -5.039098,2.90693 l -17.666182,-28.2685 c 3.94754,-2.46639 7.979975,-4.79421 12.089947,-6.97923 l 15.651196,29.43387 c -1.011909,0.56999 -2.017835,1.15053 -3.017611,1.74155 3.5379,-2.00976 7.1482,-3.8893 10.823668,-5.63482 4.395008,-2.05005 8.8774,-3.9073 13.434376,-5.56645 z m -61.527257,-2.38284 c -2.97167,2.49303 -5.85539,5.08905 -8.64592,7.78329 l -23.15452,-23.97809 c 3.34844,-3.23286 6.80868,-6.34786 10.37445,-9.33929 z m 163.481347,6.83275 c -1.848534,-0.81489 -3.715368,-1.58766 -5.599019,-2.31772 3.078262,1.22239 6.109907,2.55906 9.088635,4.0072 3.664201,1.88524 7.239035,3.93932 10.712984,6.15565 -1.280162,-0.84696 -2.574857,-1.67174 -3.883503,-2.47398 l 16.614739,-28.77957 c -1.662665,-0.99822 -3.342614,-1.96733 -5.039097,-2.90693 -2.579057,-1.34312 -5.192832,-2.61854 -7.838623,-3.8249 z m -206.151037,47.780401 c -1.69981,3.486666 -3.2774,7.031599 -4.72986,10.628349 l -30.90849,-12.487084 c 1.74445,-4.316157 3.63907,-8.570097 5.68039,-12.754036 z m 335.24078,-1.858735 c 1.7429,4.316008 3.3346,8.691532 4.77218,13.118607 l -31.69951,10.29958 c -1.19945,-3.688918 -2.52731,-7.334836 -3.98116,-10.931103 -1.45246,-3.59675 -3.03004,-7.141683 -4.72986,-10.628349 l 29.95797,-14.612771 c 2.04132,4.183939 3.93593,8.437879 5.68038,12.754036 z m -343.95179,23.418187 c -0.56996,1.864368 -1.10716,3.738585 -1.61135,5.621803 1.03851,-3.747485 2.20785,-7.45747 3.5059,-11.123155 l 31.32516,11.399841 c -0.32754,0.995609 -0.64331,1.995035 -0.94728,2.998078 1.13001,-3.452183 2.40061,-6.856748 3.80864,-10.205179 l 30.609003,13.203257 c -1.536831,3.562367 -2.865044,7.211151 -3.977904,10.927836 -1.112827,3.716518 -2.008453,7.494637 -2.682309,11.315206 l -32.82582,-5.787821 c -0.67428,3.820503 -1.1815,7.668606 -1.5202,11.533325 -0.33717,3.8645531 -0.50552,7.7419728 -0.50457,11.62119259843 h -33.23273 c -0.0338,1.93780150157 -0.0338,3.87605310157 0,5.81385460157 l -33.31412,1.1653776 c -0.16248,-4.6524937 -0.16248,-9.3092207 0,-13.9617144 l 33.31412,1.1653776 c -0.0117,1.1653443 -0.0117,2.3307719 0,3.4961161 0.0277,-4.0741549 0.20458,-8.1459431 0.5306,-12.2071311 0.42264,-4.830045 1.05585,-9.639357 1.8978,-14.414202 0.78779,-4.370508 1.74994,-8.707765 2.88415,-13.001422 -0.15784,0.539572 -0.31301,1.079943 -0.46551,1.621098 -0.93841,3.764136 -1.74511,7.559888 -2.41864,11.380324 -0.67317,3.820102 -1.21279,7.662538 -1.61784,11.520291 l -33.15136,-3.486366 c 0.48678,-4.62846 1.13497,-9.23852 1.94338,-13.821746 0.80867,-4.58431 1.77715,-9.139003 2.90367,-13.655728 1.12604,-4.516109 2.40939,-8.991535 3.84769,-13.418093 z m 29.72033,16.992343 c -0.48464,1.971068 -0.92421,3.952937 -1.31837,5.944072 0.57206,-2.681241 1.22666,-5.344216 1.9629,-7.985108 -0.2203,0.678606 -0.43515,1.358979 -0.64453,2.041036 z M -28.869183,16.6677 -57.736654,33.334523 -86.604108,50.001346 -115.47156,66.668169 c 1.9397,3.358698 4.02504,6.631162 6.25006,9.808042 0.7717,1.037877 1.55848,2.06447 2.36005,3.079446 l 26.647385,-19.84067 c 2.317455,3.112413 4.814095,6.087307 7.47727,8.909584 2.661909,2.821293 5.485718,5.485335 8.457113,7.978592 l -21.425985,25.537357 c 2.971745,2.49316 6.050874,4.85546 9.228604,7.08013 3.177946,2.22509 6.451494,4.31043 9.811292,6.25006 l -16.614739,28.77957 c 1.661582,0.99819 3.340464,1.9673 5.035863,2.90693 2.579058,1.34313 5.192816,2.61852 7.838607,3.8249 l 14.056132,-30.14025 c 1.848534,0.81489 3.715352,1.58767 5.599003,2.31772 -3.078262,-1.22238 -6.109907,-2.55904 -9.088619,-4.00718 L -44.8817,89.363699 c 0.881542,0.422071 1.769233,0.831191 2.662775,1.227228 -2.650225,-1.215178 -5.246049,-2.545674 -7.780023,-3.987671 -5.042281,-2.911277 -9.820692,-6.257342 -14.280734,-10.000093 l 21.425984,-25.53409 c 4.298907,3.547566 5.679454,4.233556 0,0 l 21.425985,-25.53409 c 2.978878,2.49929 6.372093,4.458092 10.026144,5.787804 3.6545678,1.33068 7.513804,2.011536 11.40309052,2.011736 C 3.8897247,33.33394 7.7478442,32.6531 11.401379,31.322787 c 3.654051,-1.329712 7.047249,-3.288514 10.026127,-5.787804 2.978678,-2.49914 5.497135,-5.500135 7.441487,-8.867283 L 57.736447,33.334523 C 53.84776,40.068803 48.81083,46.070809 42.853491,51.069073 41.496844,52.185283 27.826349,61.0891 33.335168,57.735802 L 50.001991,86.603256 C 44.95951,89.5141 39.672444,91.97899 34.201059,93.969859 l 11.403107,31.321911 c -4.330774,1.54961 -8.738832,2.87411 -13.206507,3.96814 0.705473,-0.1505 1.409713,-0.30676 2.112653,-0.46876 l 8.626381,32.19757 c -3.939937,1.02639 -7.916174,1.90807 -11.920678,2.64326 1.147927,-0.18982 2.293838,-0.39165 3.437532,-0.60547 l 6.930398,32.60447 c -4.553759,0.96818 -9.139919,1.77703 -13.750129,2.42514 -4.609493,0.64752 -9.24017,1.13394 -13.883597,1.45835 L 11.625981,166.2622 c 0.965509,-0.0935 1.930184,-0.19565 2.89391,-0.30598 l -2.90041,-33.12851 c 0.305036,-0.0392 0.609939,-0.0793 0.914708,-0.1205 -4.1653889,0.40598 -8.3475615,0.61492 -12.53266748,0.62825 -5.17376522,7e-5 -10.34314752,-0.30102 -15.48191252,-0.90169 l 3.870487,-33.109044 c 6.5182777,0.653806 -3.853786,-0.523572 -5.755271,-0.843108 -5.732654,-1.011026 -11.366073,-2.52069 -16.836091,-4.511759 l -11.403107,31.321911 -11.399841,31.32516 c -4.144355,-1.52666 -8.226394,-3.21746 -12.236448,-5.0684 0.482788,0.23889 0.966742,0.47544 1.45183,0.70964 l -13.55806,30.45276 c -4.25294,-1.89329 -8.438463,-3.93447 -12.548951,-6.11985 -4.109972,-2.18502 -8.142407,-4.51284 -12.089947,-6.97923 l 17.666182,-28.2685 c 1.005126,0.59439 2.016486,1.1782 3.033879,1.75132 -3.516717,-2.06282 -6.956566,-4.25399 -10.312597,-6.56908 -3.971337,-2.78117 -7.819444,-5.7343 -11.533304,-8.85098 -3.71439,-3.11726 -7.29097,-6.39516 -10.71952,-9.82431 l 23.567936,-23.567938 c 1.459631,1.399863 2.950911,2.766326 4.472692,4.098355 -2.476223,-2.203871 -4.869395,-4.499326 -7.174534,-6.881581 -2.801176,-3.028279 -5.460314,-6.184908 -7.968824,-9.459722 0.91627,1.237945 1.85392,2.459939 2.81253,3.665401 l -25.53411,21.425985 c -2.46314,-2.98878 -4.82136,-6.06251 -7.07037,-9.215587 1.10876,1.584348 2.24501,3.149267 3.40823,4.694057 l -26.26652,20.52428 c -2.86612,-3.66857 -5.60327,-7.4361 -8.20647,-11.29569 l 27.637,-18.639492 c 0.32008,0.444305 0.64235,0.887025 0.96679,1.328146 -2.52504,-3.634334 -4.90433,-7.367802 -7.13222,-11.191522 -7.84764,-15.718297 -7.66255,-13.313258 0,0 l -28.86747,16.666828 c -2.32705,-4.031692 -4.51266,-8.143381 -6.55279,-12.327587 -2.04132,-4.183939 -3.93594,-8.437879 -5.68039,-12.754036 -1.74283,-4.314941 -3.33451,-8.689382 -4.77218,-13.115357 -1.43838,-4.427641 -2.72172,-8.90415 -3.84769,-13.421342 -1.12652,-4.516726 -2.095,-9.071419 -2.90367,-13.655729 l 32.82582,-5.787821 c 0.67353,3.820436 1.48023,7.616189 2.41864,11.380324 0.15134,0.537888 0.30542,1.07501 0.46226,1.611348 -1.13286,-4.290473 -2.09394,-8.624497 -2.8809,-12.991672 -0.84195,-4.774845 -1.47516,-9.58414 -1.8978,-14.414185 l 33.2067,-2.906927 c 1.40179,11.000103 0.0523,0.71894 -0.27995,-3.8672366 l 33.278291,-1.9368682 c 0.224835,3.872753 0.674823,7.7291228 1.347679,11.5495918 0.372737,1.878201 0.799358,3.745318 1.279312,5.599019 -0.479954,-1.853701 -0.906575,-3.720818 -1.279312,-5.599019 l 32.829075,-5.787804 c 1.625782,6.893298 1.010043,5.480351 0,0 l 32.825842,-5.7878214 c 0.674823,3.8294526 2.014485,7.5113034 3.95837,10.8790024 z m -99.922817,17.841967 -32.12596,8.606848 c 0.72858,2.815676 1.53072,5.611802 2.40563,8.385495 0.63222,1.833301 1.29639,3.655434 1.9922,5.465551 l 31.22751,-11.36404 c 2.67194,6.878082 -1.85429,-5.476568 -2.44142,-7.363352 -2.7857,-12.164981 -5.81888,-21.62707 -1.05796,-3.730502 z m -25.73918,27.923446 c 4.22032,9.61319 0.40414,0.891958 -1.18489,-3.255247 0.38367,1.08916 0.77865,2.174303 1.18489,3.255247 z m 253.570098,26.65715 c 1.053442,-1.110594 2.087672,-2.239238 3.102242,-3.385448 0.64781,-0.823625 1.28587,-1.654849 1.91407,-2.493524 -1.61495,2.007719 -3.28776,3.968187 -5.016312,5.878972 z M 18.67358,131.89665 c 1.496298,-0.17109 2.989578,-0.36751 4.479209,-0.58919 1.011693,-0.21179 2.020869,-0.43534 3.027362,-0.67059 -2.48969,0.49127 -4.992897,0.91138 -7.506571,1.25978 z m 54.453628,17.75733 c 2.941394,-1.31936 5.525785,-2.71849 8.099043,-4.21879 -2.660642,1.47998 -5.361334,2.88676 -8.099043,4.21879 z m -107.780962,13.37253 -6.930398,32.60447 c -4.55296,-0.96836 -9.070719,-2.09535 -13.545044,-3.37895 l 9.189536,-32.04132 c 3.728068,1.06963 7.49232,2.00881 11.285906,2.8158 z m 52.106623,2.62371 c 1.917434,-0.16866 3.831802,-0.37051 5.742237,-0.60548 1.139211,-0.18892 2.276438,-0.38967 3.411482,-0.60222 -3.039495,0.48702 -6.091907,0.88974 -9.153719,1.2077 z m -17.45134748,1.01889 v 33.33364 C -4.6533889,200.0024 -9.3068826,199.83959 -13.950426,199.51447 l 2.324238,-33.25227 c 3.8699867,0.27091 7.7482564,0.40664 11.62770952,0.40691 z"
     style="fill:#1b1b1b;stroke:#1b1b1b;stroke-width:0.05" />
</svg>
