<?xml version="1.0" standalone="no"?>
<!DOCTYPE svg PUBLIC "-//W3C//DTD SVG 20010904//EN"
 "http://www.w3.org/TR/2001/REC-SVG-20010904/DTD/svg10.dtd">
<svg version="1.0" xmlns="http://www.w3.org/2000/svg"
 width="340.000000pt" height="340.000000pt" viewBox="0 0 340.000000 340.000000"
 preserveAspectRatio="xMidYMid meet">
<metadata>
Created by potrace 1.11, written by Peter Selinger 2001-2013
</metadata>
<g transform="translate(0.000000,340.000000) scale(0.100000,-0.100000)"
fill="#000000" stroke="none">
<path d="M1559 3396 c-2 -2 -29 -6 -59 -10 -100 -12 -134 -18 -229 -43 -591
-152 -1063 -625 -1217 -1218 -36 -138 -48 -245 -48 -425 0 -155 6 -231 30
-344 90 -433 352 -822 721 -1068 190 -127 445 -230 648 -262 22 -4 56 -9 75
-12 61 -10 353 -12 418 -3 276 38 507 122 726 263 104 67 247 186 313 262 29
32 67 75 84 94 54 61 145 205 201 317 45 89 110 259 123 323 2 8 11 48 19 88
40 186 43 474 6 658 -33 167 -68 272 -146 431 -90 187 -182 313 -345 473 -253
249 -559 399 -949 465 -39 7 -365 16 -371 11z"/>
</g>
</svg>
